<svg xmlns="http://www.w3.org/2000/svg" viewBox="0 0 1600 1000" fill="none">
  <g opacity="0.9">
    <path d="M44 215C166 118 314 82 463 89C604 95 729 147 834 205C949 269 1057 344 1200 366C1320 384 1451 357 1560 294V1000H44V215Z" fill="#A7C47C"/>
    <path d="M0 424C113 352 245 330 364 351C486 373 584 435 699 468C840 510 1001 499 1136 446C1285 388 1414 283 1600 282V1000H0V424Z" fill="#D4E3A7"/>
    <path d="M0 630C140 572 269 544 391 558C547 577 663 654 809 691C1004 741 1219 718 1387 644C1460 612 1529 572 1600 528V1000H0V630Z" fill="#8FB36A"/>
    <path d="M128 156C276 97 423 102 553 155C628 186 694 231 772 257C860 286 956 298 1044 281C1169 258 1280 186 1405 167C1476 156 1540 160 1600 182V352C1504 413 1390 448 1276 447C1150 446 1038 397 931 345C819 290 709 231 576 213C422 193 280 226 128 302V156Z" fill="#BFD98E"/>
  </g>

  <g opacity="0.3" stroke="#6F944B" stroke-width="8" stroke-linecap="round">
    <path d="M136 282C271 223 397 205 534 227C667 248 771 308 888 351C1018 398 1164 427 1310 403C1398 388 1483 354 1560 311"/>
    <path d="M76 484C212 412 345 395 478 418C589 437 686 491 790 530C898 570 1009 598 1123 593C1272 587 1423 530 1543 453"/>
    <path d="M55 693C164 639 283 622 398 638C520 655 622 712 735 751C854 793 984 812 1113 794C1257 774 1393 715 1516 638"/>
  </g>

  <g opacity="0.18" stroke="#537C28" stroke-width="3">
    <path d="M152 239L96 361"/>
    <path d="M303 189L247 311"/>
    <path d="M467 183L411 305"/>
    <path d="M654 216L598 338"/>
    <path d="M847 283L791 405"/>
    <path d="M1031 333L975 455"/>
    <path d="M1232 353L1176 475"/>
    <path d="M1435 309L1379 431"/>

    <path d="M120 457L64 579"/>
    <path d="M289 426L233 548"/>
    <path d="M466 441L410 563"/>
    <path d="M644 487L588 609"/>
    <path d="M820 540L764 662"/>
    <path d="M1014 567L958 689"/>
    <path d="M1204 565L1148 687"/>
    <path d="M1399 517L1343 639"/>
  </g>

  <g opacity="0.2" stroke="#69A5C7" stroke-width="6" stroke-linecap="round">
    <path d="M133 283C163 307 184 331 196 355"/>
    <path d="M133 283C171 281 208 289 244 307"/>
    <path d="M133 283C122 320 120 358 128 398"/>

    <path d="M466 448C503 445 540 453 574 472"/>
    <path d="M466 448C488 474 504 504 514 538"/>
    <path d="M466 448C450 480 442 514 443 547"/>

    <path d="M968 563C1002 559 1036 566 1069 584"/>
    <path d="M968 563C989 590 1003 620 1010 651"/>
    <path d="M968 563C952 592 944 622 945 652"/>

    <path d="M1290 351C1324 347 1358 354 1391 373"/>
    <path d="M1290 351C1312 378 1326 408 1333 439"/>
    <path d="M1290 351C1274 380 1266 410 1267 441"/>
  </g>

  <g opacity="0.12" stroke="#FFF8EA" stroke-width="2">
    <path d="M54 747C154 687 268 668 377 683C489 699 591 758 705 795C842 839 995 851 1138 824C1266 800 1386 746 1498 677"/>
    <path d="M34 543C157 468 289 451 415 472C524 490 619 543 722 582C841 628 970 649 1097 640C1244 629 1386 571 1518 488"/>
    <path d="M104 326C238 264 370 248 500 269C623 290 728 351 844 394C964 438 1099 462 1233 448C1356 434 1472 387 1571 323"/>
  </g>
</svg>
